# xmcd
#
# Track frame offsets: 
#        150
#        14166
#        25587
#        38772
#        50615
#        65091
#        77574
#        91132
#        105145
#        115167
#        128134
#        145649
#        155747
#        168646
#        181897
#        193983
#        208099
#        220575
#        232594
#        241761
#        255258
#        268099
#        284150
#        296836
#        307459
#
# Disc length: 4291 seconds
#
# Revision: 1
# Processed by: cddbd v1.5.2PL0 Copyright (c) Steve Scherf et al.
# Submitted via: ExactAudioCopy v1.0b1
#
DISCID=6b10c119
DTITLE=Various Artist - 100 Blues Classics - CD 1
DYEAR=2017
DGENRE=Blues
TTITLE0=Howlin' Wolf - Smokestack Lightnin'
TTITLE1=John Lee Hooker - Boom Boom
TTITLE2=Slim Harpo - I'm A King Bee
TTITLE3=Otis Rush - All Your Love (I Miss Loving) (& His Band)
TTITLE4=Johnny 'Guitar' Watson - Cuttin' In
TTITLE5=Muddy Waters - I Just Want To Make Love To You
TTITLE6=B.B. King - You Upset Me Baby
TTITLE7=T-Bone Walker - Stormy Monday Blues
TTITLE8=Elmore James - I Can't Hold Out
TTITLE9=Robert Johnson - Preaching Blues (Up Jumped The Devil)
TTITLE10=Jimmy Witherspoon - Ain't Nobody's Business
TTITLE11=Junior Wells - Messing With The Kid
TTITLE12=Buddy Guy - When My Left Eye Jumps
TTITLE13=Wild Jimmy Spurill - Hard Grind
TTITLE14=Muddy Waters - You Shook Me
TTITLE15=Sonny Terry and Brownie McGhee - Keys To The Highway (& Big Bil
TTITLE15=l Broonzy)
TTITLE16=Lightnin' Hopkins - Fan It
TTITLE17=John Lee Hooker - I'm In The Mood
TTITLE18=J.B. Lenoir - Do What I Say
TTITLE19=Champion Jack Dupree - House Rent Party
TTITLE20=Poor Joe Williams - Crawlin' King Snake
TTITLE21=Tommy Johnson - Maggie Campbell Blues
TTITLE22=Howlin' Wolf - Forty Four
TTITLE23=Guitar Gable - Life Problem
TTITLE24=Jimmy Reed - Little Rain
EXTD=
EXTT0=
EXTT1=
EXTT2=
EXTT3=
EXTT4=
EXTT5=
EXTT6=
EXTT7=
EXTT8=
EXTT9=
EXTT10=
EXTT11=
EXTT12=
EXTT13=
EXTT14=
EXTT15=
EXTT16=
EXTT17=
EXTT18=
EXTT19=
EXTT20=
EXTT21=
EXTT22=
EXTT23=
EXTT24=
PLAYORDER=
